<svg width="64" height="64" viewBox="0 0 64 64" fill="none" xmlns="http://www.w3.org/2000/svg">
  <rect width="64" height="64" rx="16" fill="#0B8794"/>
  <path d="M17 17H47C51.4 17 55 20.6 55 25V42C55 47 51 51 46 51H18C13 51 9 47 9 42V25C9 20.6 12.6 17 17 17Z" fill="#F8FFFF"/>
  <path d="M20 23H44C45.7 23 47 24.3 47 26V33H17V26C17 24.3 18.3 23 20 23Z" fill="#063A43"/>
  <circle cx="22" cy="40" r="4.6" fill="#0B8794"/>
  <circle cx="42" cy="40" r="4.6" fill="#0B8794"/>
  <path d="M27 45C30.2 47.6 33.8 47.6 37 45" stroke="#063A43" stroke-width="3.5" stroke-linecap="round"/>
  <path d="M15 34H11C9.4 34 8.2 32.8 8.2 31.2C8.2 29.6 9.4 28.4 11 28.4H13" stroke="#F8FFFF" stroke-width="3.5" stroke-linecap="round" stroke-linejoin="round"/>
  <path d="M49 34H53C54.6 34 55.8 32.8 55.8 31.2C55.8 29.6 54.6 28.4 53 28.4H51" stroke="#F8FFFF" stroke-width="3.5" stroke-linecap="round" stroke-linejoin="round"/>
</svg>
